<mxfile host="app.diagrams.net" modified="2023-11-09T18:43:17.705Z" agent="Mozilla/5.0 (Windows NT 10.0; Win64; x64) AppleWebKit/537.36 (KHTML, like Gecko) Chrome/119.0.0.0 Safari/537.36" version="22.1.0" etag="MlXGH4wPfApew-9q9YRc" type="github">
  <diagram name="Page-1" id="fR-PZct3JEtV1MfEoqCz">
    <mxGraphModel>
      <root>
        <mxCell id="0" />
        <mxCell id="1" parent="0" />
      </root>
    </mxGraphModel>
  </diagram>
</mxfile>
